<?xml version="1.0" encoding="UTF-8" standalone="no"?>
<!DOCTYPE svg PUBLIC "-//W3C//DTD SVG 1.1//EN"
 "http://www.w3.org/Graphics/SVG/1.1/DTD/svg11.dtd">
<!-- Generated by graphviz version 2.43.0 (0)
 -->
<!-- Title: Gradle Uploader Pages: 1 -->
<svg width="1050pt" height="810pt"
 viewBox="0.00 0.00 1050.00 810.00" xmlns="http://www.w3.org/2000/svg" xmlns:xlink="http://www.w3.org/1999/xlink">
<g id="graph0" class="graph" transform="scale(1 1) rotate(0) translate(144 666)">
<title>Gradle Uploader</title>
<text text-anchor="middle" x="381" y="-9" font-family="Sans-Serif" font-size="15.00" fill="#2d3436">Gradle Uploader</text>
<!-- 5d53e073cc3946a8a699732c40ff5ea1 -->
<g id="node1" class="node">
<title>5d53e073cc3946a8a699732c40ff5ea1</title>
<image xlink:href="/home/stefan/.local/lib/python3.8/site-packages/resources/aws/storage/simple-storage-service-s3.png" width="101px" height="101px" preserveAspectRatio="xMinYMin meet" x="505" y="-504"/>
<text text-anchor="middle" x="555.5" y="-388.6" font-family="Sans-Serif" font-size="13.00" fill="#2d3436">S3 Bucket</text>
</g>
<!-- ef48f1de128548d5ad6c2662e949a14b -->
<g id="node2" class="node">
<title>ef48f1de128548d5ad6c2662e949a14b</title>
<image xlink:href="/home/stefan/.local/lib/python3.8/site-packages/resources/aws/compute/lambda.png" width="101px" height="101px" preserveAspectRatio="xMinYMin meet" x="183" y="-324"/>
<text text-anchor="middle" x="233.5" y="-208.6" font-family="Sans-Serif" font-size="13.00" fill="#2d3436">Lambda function</text>
</g>
<!-- ef48f1de128548d5ad6c2662e949a14b&#45;&gt;5d53e073cc3946a8a699732c40ff5ea1 -->
<g id="edge2" class="edge">
<title>ef48f1de128548d5ad6c2662e949a14b&#45;&gt;5d53e073cc3946a8a699732c40ff5ea1</title>
<path fill="none" stroke="#7b8894" d="M234,-342.06C234,-392.93 234,-453.5 234,-453.5 234,-453.5 494.91,-453.5 494.91,-453.5"/>
<polygon fill="#7b8894" stroke="#7b8894" points="494.91,-457 504.91,-453.5 494.91,-450 494.91,-457"/>
<text text-anchor="middle" x="394.5" y="-457.1" font-family="Sans-Serif" font-size="13.00" fill="#2d3436">Upload new Gradle release</text>
</g>
<!-- 76c046fae6274b1c8caece840f47f908 -->
<g id="node4" class="node">
<title>76c046fae6274b1c8caece840f47f908</title>
<image xlink:href="/home/stefan/.local/lib/python3.8/site-packages/resources/saas/chat/slack.png" width="101px" height="101px" preserveAspectRatio="xMinYMin meet" x="505" y="-324"/>
<text text-anchor="middle" x="555.5" y="-208.6" font-family="Sans-Serif" font-size="13.00" fill="#2d3436">Slack</text>
</g>
<!-- ef48f1de128548d5ad6c2662e949a14b&#45;&gt;76c046fae6274b1c8caece840f47f908 -->
<g id="edge3" class="edge">
<title>ef48f1de128548d5ad6c2662e949a14b&#45;&gt;76c046fae6274b1c8caece840f47f908</title>
<path fill="none" stroke="#7b8894" d="M284.17,-273.5C284.17,-273.5 494.86,-273.5 494.86,-273.5"/>
<polygon fill="#7b8894" stroke="#7b8894" points="494.86,-277 504.86,-273.5 494.86,-270 494.86,-277"/>
<text text-anchor="middle" x="394.5" y="-277.1" font-family="Sans-Serif" font-size="13.00" fill="#2d3436">Webhook</text>
</g>
<!-- 71c6109701dc4f0b8fc02a265b60a38a -->
<g id="node6" class="node">
<title>71c6109701dc4f0b8fc02a265b60a38a</title>
<image xlink:href="/home/stefan/.local/lib/python3.8/site-packages/resources/aws/integration/simple-notification-service-sns.png" width="101px" height="101px" preserveAspectRatio="xMinYMin meet" x="505" y="-144"/>
<text text-anchor="middle" x="555.5" y="-28.6" font-family="Sans-Serif" font-size="13.00" fill="#2d3436">SNS</text>
</g>
<!-- ef48f1de128548d5ad6c2662e949a14b&#45;&gt;71c6109701dc4f0b8fc02a265b60a38a -->
<g id="edge4" class="edge">
<title>ef48f1de128548d5ad6c2662e949a14b&#45;&gt;71c6109701dc4f0b8fc02a265b60a38a</title>
<path fill="none" stroke="#7b8894" d="M234,-204.94C234,-154.07 234,-93.5 234,-93.5 234,-93.5 494.91,-93.5 494.91,-93.5"/>
<polygon fill="#7b8894" stroke="#7b8894" points="494.91,-97 504.91,-93.5 494.91,-90 494.91,-97"/>
</g>
<!-- 647b8e910a9742db96054fdac23ab0f0 -->
<g id="node3" class="node">
<title>647b8e910a9742db96054fdac23ab0f0</title>
<image xlink:href="/home/stefan/.local/lib/python3.8/site-packages/resources/aws/management/cloudwatch.png" width="101px" height="101px" preserveAspectRatio="xMinYMin meet" x="0" y="-324"/>
<text text-anchor="middle" x="50.5" y="-208.6" font-family="Sans-Serif" font-size="13.00" fill="#2d3436">CloudWatch</text>
</g>
<!-- 647b8e910a9742db96054fdac23ab0f0&#45;&gt;ef48f1de128548d5ad6c2662e949a14b -->
<g id="edge1" class="edge">
<title>647b8e910a9742db96054fdac23ab0f0&#45;&gt;ef48f1de128548d5ad6c2662e949a14b</title>
<path fill="none" stroke="#7b8894" d="M101.48,-273.5C101.48,-273.5 172.8,-273.5 172.8,-273.5"/>
<polygon fill="#7b8894" stroke="#7b8894" points="172.8,-277 182.8,-273.5 172.8,-270 172.8,-277"/>
<text text-anchor="middle" x="142" y="-277.1" font-family="Sans-Serif" font-size="13.00" fill="#2d3436">cron</text>
</g>
<!-- c98854f2af744f8db9f249a519538cad -->
<g id="node5" class="node">
<title>c98854f2af744f8db9f249a519538cad</title>
<image xlink:href="/home/stefan/.local/lib/python3.8/site-packages/resources/generic/device/mobile.png" width="101px" height="101px" preserveAspectRatio="xMinYMin meet" x="661" y="-144"/>
<text text-anchor="middle" x="711.5" y="-28.6" font-family="Sans-Serif" font-size="13.00" fill="#2d3436">E&#45;Mail</text>
</g>
<!-- 71c6109701dc4f0b8fc02a265b60a38a&#45;&gt;c98854f2af744f8db9f249a519538cad -->
<g id="edge5" class="edge">
<title>71c6109701dc4f0b8fc02a265b60a38a&#45;&gt;c98854f2af744f8db9f249a519538cad</title>
<path fill="none" stroke="#7b8894" d="M606.15,-93.5C606.15,-93.5 650.84,-93.5 650.84,-93.5"/>
<polygon fill="#7b8894" stroke="#7b8894" points="650.84,-97 660.84,-93.5 650.84,-90 650.84,-97"/>
</g>
</g>
</svg>
